<svg xmlns="http://www.w3.org/2000/svg" viewBox="0 0 800 560" font-family="Montserrat, Arial, sans-serif">
  <!-- Placeholder floor plan: replace with the official plan images -->
  <rect width="800" height="560" fill="#f4f1ea"/>
  <g fill="none" stroke="#2b2b2b" stroke-width="6" stroke-linejoin="square">
    <rect x="40" y="40" width="720" height="480"/>
    <path d="M300 40 V260 M40 260 H440 M440 40 V520 M600 260 V520 M440 260 H760 M170 260 V520 M300 390 H440"/>
  </g>
  <!-- doors -->
  <g fill="none" stroke="#2b2b2b" stroke-width="2">
    <path d="M250 260 A50 50 0 0 1 300 210"/>
    <path d="M440 170 A50 50 0 0 1 390 120"/>
    <path d="M500 260 A50 50 0 0 0 550 310"/>
    <path d="M170 330 A50 50 0 0 1 220 380"/>
    <path d="M440 440 A40 40 0 0 0 400 480"/>
  </g>
  <!-- door gaps -->
  <g stroke="#f4f1ea" stroke-width="8">
    <path d="M250 260 H300 M440 120 V170 M500 260 H550 M170 330 V380 M440 440 V480"/>
  </g>
  <!-- furniture hints -->
  <g fill="none" stroke="#8a8474" stroke-width="2">
    <rect x="80" y="80" width="120" height="90" rx="6"/>
    <rect x="80" y="80" width="120" height="22" rx="4"/>
    <rect x="480" y="80" width="130" height="60" rx="8"/>
    <rect x="480" y="160" width="60" height="40" rx="6"/>
    <rect x="640" y="300" width="80" height="110" rx="6"/>
    <rect x="200" y="300" width="80" height="70" rx="6"/>
    <circle cx="370" cy="330" r="30"/>
    <rect x="60" y="440" width="90" height="60" rx="6"/>
  </g>
  <g fill="#2b2b2b" font-size="15" font-weight="600" letter-spacing="1.5" text-anchor="middle">
    <text x="170" y="215">BEDROOM 1</text>
    <text x="600" y="225">LIVING / DINING</text>
    <text x="520" y="400">BEDROOM 2</text>
    <text x="680" y="460">BEDROOM 3</text>
    <text x="105" y="400">KITCHEN</text>
    <text x="235" y="470">UTILITY</text>
    <text x="370" y="470">TOILET</text>
    <text x="370" y="300">FOYER</text>
  </g>
  <g fill="#8a8474" font-size="11" letter-spacing="1" text-anchor="middle">
    <text x="170" y="235">14'0" x 12'6"</text>
    <text x="600" y="245">24'0" x 14'0"</text>
    <text x="520" y="420">13'0" x 12'0"</text>
    <text x="680" y="480">12'6" x 12'0"</text>
  </g>
</svg>
